<svg xmlns="http://www.w3.org/2000/svg" width="20px" height="20px" fill="#5D3EFF" viewBox="0 0 24 24"><path d="M18.649,15.938l-6.82-3.94l6.82-3.94c0.32-0.18,0.5-0.51,0.5-0.87c0-0.36-0.18-0.68-0.5-0.86
                l-6.62-3.83c-0.31-0.18-0.69-0.18-1,0c-0.31,0.18-0.5,0.51-0.5,0.87v7.77c-1.4-0.82-2.81-1.63-4.22-2.44
                c-0.24-0.14-0.47-0.28-0.71-0.41c-0.56-0.33-1.06,0.54-0.51,0.86c1.65,0.95,3.3,1.9,4.95,2.85c-1.41,0.81-2.83,1.62-4.23,2.44
                c-0.24,0.13-0.48,0.27-0.72,0.41c-0.55,0.32-0.05,1.18,0.51,0.86c1.65-0.95,3.28-1.89,4.93-2.85v7.77c0,0.37,0.19,0.69,0.5,0.87
                c0.16,0.09,0.33,0.14,0.5,0.14c0.17,0,0.34-0.05,0.5-0.14l6.62-3.82c0.32-0.19,0.5-0.51,0.5-0.87
                C19.149,16.447,18.969,16.127,18.649,15.938z M11.529,3.368l6.62,3.82l-6.62,3.83V3.368z M11.529,20.627v-7.64l6.62,3.82
                L11.529,20.627z"/></svg>