<svg xmlns="http://www.w3.org/2000/svg" width="20px" height="20px" fill="#ff7033" viewBox="0 0 24 24"><path d="M12.23,3.065h-0.46c-4.52,0-8.2,3.68-8.2,8.2v6.25c0,0.85,0.31,1.67,0.89,2.3
                c0.64,0.71,1.57,1.12,2.53,1.12h0.53c0.67,0,1.22-0.55,1.22-1.22v-4.4c0-0.67-0.55-1.22-1.22-1.22H7.11c-0.98,0-1.89,0.4-2.54,1.05
                v-3.88c0-3.97,3.23-7.2,7.2-7.2h0.46c3.97,0,7.2,3.23,7.2,7.2v3.88c-0.65-0.65-1.56-1.05-2.54-1.05h-0.41
                c-0.67,0-1.22,0.55-1.22,1.22v4.4c0,0.67,0.55,1.22,1.22,1.22h0.53c0.96,0,1.89-0.41,2.53-1.12c0.58-0.63,0.89-1.45,0.89-2.3v-6.25
                C20.43,6.745,16.75,3.065,12.23,3.065z M4.58,17.275c0.12-1.22,1.23-2.18,2.53-2.18h0.41c0.12,0,0.22,0.1,0.22,0.22v4.4
                c0,0.12-0.1,0.22-0.22,0.22H6.99c-0.68,0-1.34-0.29-1.79-0.79c-0.42-0.45-0.64-1.03-0.63-1.63C4.57,17.435,4.57,17.355,4.58,17.275
                z M18.8,19.145c-0.45,0.5-1.11,0.79-1.79,0.79h-0.53c-0.12,0-0.22-0.1-0.22-0.22v-4.4c0-0.12,0.1-0.22,0.22-0.22h0.41
                c1.3,0,2.41,0.96,2.53,2.18c0.01,0.08,0.01,0.16,0.01,0.24C19.44,18.115,19.22,18.695,18.8,19.145z"/></svg>