<svg xmlns="http://www.w3.org/2000/svg" width="20px" height="20px" fill="#ff33f5" viewBox="0 0 24 24"><g>
                <path d="M13,14.499h-2c-0.827,0-1.5-0.673-1.5-1.5v-2c0-0.827,0.673-1.5,1.5-1.5h2
                    c0.827,0,1.5,0.673,1.5,1.5v2C14.5,13.826,13.827,14.499,13,14.499z M11,10.499c-0.275,0-0.5,0.225-0.5,0.5v2
                    c0,0.275,0.225,0.5,0.5,0.5h2c0.275,0,0.5-0.225,0.5-0.5v-2c0-0.275-0.225-0.5-0.5-0.5H11z"/>
                <path d="M20.435,14.495h-1.93v-5h1.93c0.26,0,0.51-0.23,0.5-0.5c-0.01-0.27-0.22-0.5-0.5-0.5h-1.93v-0.5
                    c0-1.38-1.13-2.5-2.5-2.5h-0.5v-1.93c0-0.26-0.23-0.51-0.5-0.5c-0.28,0.01-0.5,0.22-0.5,0.5v1.93h-5v-1.93
                    c0-0.26-0.23-0.51-0.5-0.5c-0.28,0.01-0.5,0.22-0.5,0.5v1.93h-0.5c-1.38,0-2.5,1.12-2.5,2.5v0.5h-1.94c-0.26,0-0.51,0.23-0.5,0.5
                    c0.01,0.27,0.22,0.5,0.5,0.5h1.94v5h-1.94c-0.26,0-0.51,0.23-0.5,0.5c0.01,0.27,0.22,0.5,0.5,0.5h1.94v0.5c0,1.38,1.12,2.5,2.5,2.5
                    h0.5v1.94c0,0.26,0.23,0.51,0.5,0.5c0.27-0.01,0.5-0.22,0.5-0.5v-1.94h5v1.94c0,0.26,0.23,0.51,0.5,0.5c0.27-0.01,0.5-0.22,0.5-0.5
                    v-1.94h0.5c1.37,0,2.5-1.12,2.5-2.5v-0.5h1.93c0.26,0,0.51-0.23,0.5-0.5C20.925,14.725,20.715,14.495,20.435,14.495z
                    M17.505,15.995c0,0.83-0.68,1.5-1.5,1.5h-8c-0.83,0-1.5-0.67-1.5-1.5v-8c0-0.82,0.67-1.5,1.5-1.5h8c0.82,0,1.5,0.68,1.5,1.5
                    V15.995z"/>
            </g></svg>