<svg version="1.2" xmlns="http://www.w3.org/2000/svg" viewBox="0 0 656 584" width="656" height="584">
	<title>&lt;Path&gt;</title>
	<style>
		.s0 { fill: #f2f2f2 } 
	</style>
	<path id="&lt;Path&gt;" class="s0" d="m604.2 292c34.2-33.5 51-74.4 51-121.8q0-34.9-13.1-65.6c-8.8-21.1-21.2-38.6-36.5-53.9-15.3-16.1-33.5-27.7-54.7-37.2q-31.7-13.1-65.6-13.1h-355.6l84 97.7c0 0 271.5 0 271.6 0 18.9 0 38.9 6.8 51.8 21.1 12.7 14.1 21.1 31.8 21.1 51 0 18.8-7.8 38.5-21.1 51.8-13.6 13.6-32.6 21.9-51.8 21.9h-146.2l83.4 96.9c0 0 62.8 0 62.8 0 20 0 37.8 7.9 51.8 21.9 12.9 13 21.1 32.8 21.1 51.1 0 18-8.1 37.9-21.1 51-13.9 13.8-32.2 21.1-51.8 21.1h-67l-417.5-485.5v583.2h97v-321.2l276 321.2c0 0 111.5 0 111.5 0 16.9 0 33.8-2.3 50-7.3 26.4-8.2 50.8-23.5 70.3-43 15.3-15.3 27.7-32.8 36.5-53.9q13.1-30.7 13.1-65.6c0-48.2-16.8-89-51-121.8z"/>
</svg>